<svg version="1.1" id="Layer_1" xmlns="http://www.w3.org/2000/svg" xmlns:xlink="http://www.w3.org/1999/xlink" x="0px" y="0px"
	 width="100%" viewBox="0 0 500 500" enable-background="new 0 0 500 500" xml:space="preserve">
<path fill="#FF5841" opacity="1.000000" stroke="none" 
	d="
M271.000000,501.000000 
	C257.979095,501.000000 244.958206,501.000000 231.248657,500.655823 
	C223.636612,499.428101 216.664276,498.823212 209.797531,497.617157 
	C150.397263,487.184052 100.717056,459.313629 61.322315,413.655823 
	C30.152079,377.530090 11.011012,335.683624 3.857903,288.431000 
	C2.976694,282.609833 1.956037,276.809814 1.000000,271.000000 
	C1.000000,254.979111 1.000000,238.958206 1.348392,222.320343 
	C2.525087,218.015533 3.546154,214.359146 4.153582,210.635284 
	C20.610889,109.742805 97.136040,29.124514 197.682648,6.737428 
	C199.545319,6.322695 201.258621,5.236965 203.304153,4.669814 
	C206.971695,4.546172 210.397217,4.355995 213.777115,3.856874 
	C219.533188,3.006859 225.260559,1.962631 231.000000,1.000001 
	C243.687561,1.000000 256.375122,1.000000 269.680511,1.312049 
	C271.202789,1.692760 272.107239,1.761421 273.437317,1.912289 
	C312.055511,5.620436 347.875427,16.858999 380.401367,37.196976 
	C446.189453,78.333206 485.646637,137.307419 498.185791,214.054245 
	C499.162109,220.029922 500.063660,226.017807 501.000000,232.000000 
	C501.000000,244.687561 501.000000,257.375122 500.654297,270.749390 
	C499.425446,278.360779 498.821472,285.334534 497.615265,292.202515 
	C487.181763,351.610382 459.309174,401.296844 413.639160,440.690277 
	C377.505432,471.858002 335.656860,491.006348 288.393585,498.143738 
	C282.584412,499.020996 276.797333,500.044342 271.000000,501.000000 
M402.638519,229.503647 
	C402.638306,236.498154 402.637970,243.492676 402.637848,250.487183 
	C402.637756,257.315247 402.604736,264.143494 402.647308,270.971283 
	C402.688812,277.626984 402.455414,284.310669 402.794922,290.945496 
	C403.534454,290.912415 404.274017,290.879333 405.013550,290.846252 
	C405.013550,267.502136 405.013550,244.158005 405.013550,220.813889 
	C406.679901,222.209915 407.375580,223.690247 408.044067,225.182755 
	C417.287750,245.821198 426.511658,266.468536 435.803925,287.085083 
	C436.442047,288.500854 437.584686,289.689270 438.492706,290.983398 
	C439.583923,289.695862 441.045166,288.574738 441.710419,287.095581 
	C450.576263,267.383606 459.326324,247.619553 468.119019,227.874619 
	C469.093628,225.686035 470.153412,223.535416 471.173706,221.367188 
	C471.665710,221.449554 472.157715,221.531921 472.649719,221.614288 
	C472.649719,244.714523 472.649719,267.814789 472.649719,290.915009 
	C473.180420,290.901794 473.711121,290.888580 474.241821,290.875336 
	C474.241821,264.777435 474.241821,238.679565 474.241821,212.581665 
	C473.672729,212.402542 473.103668,212.223434 472.534576,212.044312 
	C461.378326,237.008347 450.222076,261.972382 438.771912,287.594147 
	C426.951202,261.955383 416.338654,236.792847 404.711731,212.112274 
	C404.020905,212.317673 403.330048,212.523087 402.639221,212.728485 
	C402.639221,217.987854 402.639221,223.247208 402.638519,229.503647 
M293.901093,212.492661 
	C273.386688,204.628067 252.490051,212.621017 243.783234,231.544968 
	C240.265503,239.190598 239.527939,247.205078 240.022583,255.435776 
	C241.620544,282.024689 267.408508,298.822449 292.368927,289.551941 
	C308.077454,283.717712 319.661316,264.605225 316.258148,250.136505 
	C302.082825,248.883514 279.148804,249.600327 276.203156,251.943481 
	C289.310059,251.943481 301.709839,251.943481 314.432800,251.943481 
	C314.080780,266.069855 309.234375,277.336639 297.381378,284.422760 
	C284.962921,291.846924 271.836456,292.023346 259.486664,284.429352 
	C244.799438,275.398041 241.421143,260.992340 242.835556,244.908875 
	C244.324692,227.975662 255.478943,215.464630 271.699493,212.344055 
	C287.988220,209.210342 303.045990,216.662415 310.782593,231.620804 
	C311.324585,232.668777 312.285431,233.500107 313.051514,234.432175 
	C310.316711,224.098877 304.043671,217.008286 293.901093,212.492661 
M100.152573,259.608185 
	C100.398911,255.306396 101.173737,250.957657 100.796600,246.711243 
	C99.440132,231.437927 92.937347,219.104263 78.285995,212.858002 
	C64.438828,206.954590 50.835312,208.269287 38.661465,217.458893 
	C21.559509,230.368530 18.553625,260.429932 32.571819,277.870941 
	C42.802704,290.599823 56.505756,294.422089 71.944031,290.798615 
	C87.786469,287.080353 96.682137,276.137390 100.152573,259.608185 
M334.086273,280.695404 
	C335.145203,277.899902 335.894348,274.923584 337.380371,272.377319 
	C338.258636,270.872467 340.278717,269.107117 341.825958,269.068054 
	C352.965851,268.786926 364.118500,268.808563 375.260254,269.050110 
	C376.725189,269.081879 378.859222,270.590637 379.469330,271.957306 
	C381.766998,277.103973 383.508881,282.496002 385.585052,287.746246 
	C386.088806,289.020172 387.074493,290.103516 387.838562,291.274475 
	C388.840515,289.993439 388.855530,289.208130 388.597198,288.526459 
	C379.358154,264.146423 370.109222,239.770035 360.779205,215.424759 
	C360.377533,214.376572 359.195160,213.627563 358.376434,212.739166 
	C357.612488,213.723892 356.555389,214.596054 356.127686,215.709915 
	C346.840668,239.894623 337.617462,264.103851 328.422791,288.323853 
	C328.131989,289.089874 328.274536,290.020416 328.215088,290.874268 
	C328.692169,291.047333 329.169250,291.220398 329.646332,291.393433 
	C331.052887,288.075134 332.459442,284.756805 334.086273,280.695404 
M139.591904,279.785736 
	C130.515549,256.533325 122.223969,232.962585 111.829369,210.204025 
	C111.237236,211.717651 111.416344,212.956497 111.850945,214.098068 
	C121.193039,238.636871 130.547806,263.170898 139.975327,287.676941 
	C140.450958,288.913330 141.602676,289.889679 142.439575,290.987091 
	C143.280869,289.886200 144.438065,288.907166 144.916824,287.666382 
	C154.429092,263.014130 163.870270,238.334396 173.286453,213.645203 
	C173.673096,212.631424 173.676086,211.471313 173.857819,210.379379 
	C173.277328,210.223709 172.696854,210.068024 172.116379,209.912338 
	C162.366623,235.289337 152.616882,260.666321 142.466827,287.085266 
	C141.322586,284.164673 140.604202,282.331085 139.591904,279.785736 
M203.507492,251.818100 
	C210.229736,251.818100 216.951996,251.818100 223.674240,251.818100 
	C223.655945,251.120300 223.637650,250.422501 223.619354,249.724701 
	C212.610138,249.724701 201.600922,249.724701 190.343323,249.724701 
	C190.343323,236.958099 190.343323,224.894958 190.343323,212.035065 
	C202.733627,212.035065 214.840302,212.035065 226.946991,212.035065 
	C226.935837,211.585526 226.924683,211.136002 226.913544,210.686462 
	C214.013657,210.686462 201.113770,210.686462 188.057465,210.686462 
	C188.057465,237.384613 188.057465,263.944427 188.057465,290.428955 
	C201.162415,290.428955 214.011414,290.428955 226.860397,290.428955 
	C226.863968,289.991394 226.867538,289.553833 226.871094,289.116272 
	C214.742676,289.116272 202.614243,289.116272 190.339371,289.116272 
	C190.339371,276.348694 190.339371,264.296356 190.339371,251.817932 
	C194.586777,251.817932 198.548737,251.817932 203.507492,251.818100 
z"/>
<path fill="#FFFEFE" opacity="1.000000" stroke="none" 
	d="
M271.468658,501.000000 
	C276.797333,500.044342 282.584412,499.020996 288.393585,498.143738 
	C335.656860,491.006348 377.505432,471.858002 413.639160,440.690277 
	C459.309174,401.296844 487.181763,351.610382 497.615265,292.202515 
	C498.821472,285.334534 499.425446,278.360779 500.654297,271.218018 
	C501.000000,347.593689 501.000000,424.187408 501.000000,501.000000 
	C424.645905,501.000000 348.291626,501.000000 271.468658,501.000000 
z"/>
<path fill="#FFFEFE" opacity="1.000000" stroke="none" 
	d="
M1.000000,271.468658 
	C1.956037,276.809814 2.976694,282.609833 3.857903,288.431000 
	C11.011012,335.683624 30.152079,377.530090 61.322315,413.655823 
	C100.717056,459.313629 150.397263,487.184052 209.797531,497.617157 
	C216.664276,498.823212 223.636612,499.428101 230.779999,500.655823 
	C154.406296,501.000000 77.812592,501.000000 1.000000,501.000000 
	C1.000000,424.645905 1.000000,348.291626 1.000000,271.468658 
z"/>
<path fill="#FFFFFE" opacity="1.000000" stroke="none" 
	d="
M501.000000,231.531342 
	C500.063660,226.017807 499.162109,220.029922 498.185791,214.054245 
	C485.646637,137.307419 446.189453,78.333206 380.401367,37.196976 
	C347.875427,16.858999 312.055511,5.620436 273.433533,1.704795 
	C273.004150,1.415094 273.000000,1.000000 273.000000,1.000000 
	C348.927521,1.000000 424.855011,1.000000 501.000000,1.000000 
	C501.000000,77.687424 501.000000,154.375061 501.000000,231.531342 
z"/>
<path fill="#FFFFFE" opacity="1.000000" stroke="none" 
	d="
M203.041611,4.464311 
	C201.258621,5.236965 199.545319,6.322695 197.682648,6.737428 
	C97.136040,29.124514 20.610889,109.742805 4.153582,210.635284 
	C3.546154,214.359146 2.525087,218.015533 1.348392,221.851685 
	C1.000000,148.409943 1.000000,74.819870 1.000000,1.000000 
	C67.354050,1.000000 133.708374,1.000000 200.580338,1.303463 
	C201.718521,2.113562 202.339066,2.620198 202.953445,3.351266 
	C202.945175,3.875466 202.976608,4.171669 203.041611,4.464311 
z"/>
<path fill="#FFF5F4" opacity="1.000000" stroke="none" 
	d="
M203.304153,4.669812 
	C202.976608,4.171669 202.945175,3.875466 203.060822,3.003307 
	C203.116241,1.953944 203.058121,1.476972 203.000000,1.000000 
	C212.020889,1.000000 221.041794,1.000000 230.531342,1.000001 
	C225.260559,1.962631 219.533188,3.006859 213.777115,3.856874 
	C210.397217,4.355995 206.971695,4.546172 203.304153,4.669812 
z"/>
<path fill="#FFF5F4" opacity="1.000000" stroke="none" 
	d="
M272.625000,1.000000 
	C273.000000,1.000000 273.004150,1.415094 273.007935,1.622588 
	C272.107239,1.761421 271.202789,1.692760 270.149170,1.312049 
	C270.750000,1.000000 271.500000,1.000000 272.625000,1.000000 
z"/>
<path fill="#000000" opacity="1.000000" stroke="none" 
	d="
M202.666672,1.000000 
	C203.058121,1.476972 203.116241,1.953944 203.066971,2.778875 
	C202.339066,2.620198 201.718521,2.113562 201.048996,1.303463 
	C201.444443,1.000000 201.888901,1.000000 202.666672,1.000000 
z"/>
<path fill="#FFEAE8" opacity="1.000000" stroke="none" 
	d="
M402.638855,229.005112 
	C402.639221,223.247208 402.639221,217.987854 402.639221,212.728485 
	C403.330048,212.523087 404.020905,212.317673 404.711731,212.112274 
	C416.338654,236.792847 426.951202,261.955383 438.771912,287.594147 
	C450.222076,261.972382 461.378326,237.008347 472.534576,212.044312 
	C473.103668,212.223434 473.672729,212.402542 474.241821,212.581665 
	C474.241821,238.679565 474.241821,264.777435 474.241821,290.875336 
	C473.711121,290.888580 473.180420,290.901794 472.649719,290.915009 
	C472.649719,267.814789 472.649719,244.714523 472.649719,221.614288 
	C472.157715,221.531921 471.665710,221.449554 471.173706,221.367188 
	C470.153412,223.535416 469.093628,225.686035 468.119019,227.874619 
	C459.326324,247.619553 450.576263,267.383606 441.710419,287.095581 
	C441.045166,288.574738 439.583923,289.695862 438.492676,290.983398 
	C437.584686,289.689270 436.442047,288.500854 435.803925,287.085083 
	C426.511658,266.468536 417.287750,245.821198 408.044067,225.182755 
	C407.375580,223.690247 406.679901,222.209915 405.013550,220.813889 
	C405.013550,244.158005 405.013550,267.502136 405.013550,290.846252 
	C404.274017,290.879333 403.534454,290.912415 402.794922,290.945496 
	C402.455414,284.310669 402.688812,277.626984 402.647308,270.971283 
	C402.604736,264.143494 402.637756,257.315247 402.637848,250.487183 
	C402.637970,243.492676 402.638306,236.498154 402.638855,229.005112 
z"/>
<path fill="#FFEEEB" opacity="1.000000" stroke="none" 
	d="
M294.253723,212.645355 
	C304.043671,217.008286 310.316711,224.098877 313.051514,234.432175 
	C312.285431,233.500107 311.324585,232.668777 310.782593,231.620804 
	C303.045990,216.662415 287.988220,209.210342 271.699493,212.344055 
	C255.478943,215.464630 244.324692,227.975662 242.835556,244.908875 
	C241.421143,260.992340 244.799438,275.398041 259.486664,284.429352 
	C271.836456,292.023346 284.962921,291.846924 297.381378,284.422760 
	C309.234375,277.336639 314.080780,266.069855 314.432800,251.943481 
	C301.709839,251.943481 289.310059,251.943481 276.203156,251.943481 
	C279.148804,249.600327 302.082825,248.883514 316.258148,250.136505 
	C319.661316,264.605225 308.077454,283.717712 292.368927,289.551941 
	C267.408508,298.822449 241.620544,282.024689 240.022583,255.435776 
	C239.527939,247.205078 240.265503,239.190598 243.783234,231.544968 
	C252.490051,212.621017 273.386688,204.628067 294.253723,212.645355 
z"/>
<path fill="#FFECE9" opacity="1.000000" stroke="none" 
	d="
M100.103668,260.035889 
	C96.682137,276.137390 87.786469,287.080353 71.944031,290.798615 
	C56.505756,294.422089 42.802704,290.599823 32.571819,277.870941 
	C18.553625,260.429932 21.559509,230.368530 38.661465,217.458893 
	C50.835312,208.269287 64.438828,206.954590 78.285995,212.858002 
	C92.937347,219.104263 99.440132,231.437927 100.796600,246.711243 
	C101.173737,250.957657 100.398911,255.306396 100.103668,260.035889 
M98.177071,247.659622 
	C97.246811,232.051086 90.652702,219.859695 75.570068,214.271698 
	C61.580441,209.088669 48.150627,211.148087 37.235374,221.990448 
	C26.735905,232.419830 25.044308,245.721710 27.222218,259.579865 
	C31.224171,285.044495 59.214069,298.027130 81.181335,284.592285 
	C94.526428,276.430634 98.705948,263.523621 98.177071,247.659622 
z"/>
<path fill="#FFEEEB" opacity="1.000000" stroke="none" 
	d="
M333.976135,281.066956 
	C332.459442,284.756805 331.052887,288.075134 329.646332,291.393433 
	C329.169250,291.220398 328.692169,291.047333 328.215088,290.874268 
	C328.274536,290.020416 328.131989,289.089874 328.422791,288.323853 
	C337.617462,264.103851 346.840668,239.894623 356.127686,215.709915 
	C356.555389,214.596054 357.612488,213.723892 358.376465,212.739166 
	C359.195160,213.627563 360.377533,214.376572 360.779205,215.424759 
	C370.109222,239.770035 379.358154,264.146423 388.597198,288.526459 
	C388.855530,289.208130 388.840515,289.993439 387.838562,291.274475 
	C387.074493,290.103516 386.088806,289.020172 385.585052,287.746246 
	C383.508881,282.496002 381.766998,277.103973 379.469330,271.957306 
	C378.859222,270.590637 376.725189,269.081879 375.260254,269.050110 
	C364.118500,268.808563 352.965851,268.786926 341.825958,269.068054 
	C340.278717,269.107117 338.258636,270.872467 337.380371,272.377319 
	C335.894348,274.923584 335.145203,277.899902 333.976135,281.066956 
M345.119324,251.676880 
	C343.348755,256.442719 341.578217,261.208527 339.647278,266.406097 
	C352.459076,266.406097 364.599548,266.406097 377.474945,266.406097 
	C371.123901,249.712708 364.980316,233.564636 358.523987,216.594482 
	C353.915771,228.645752 349.651733,239.796936 345.119324,251.676880 
z"/>
<path fill="#FFEDEA" opacity="1.000000" stroke="none" 
	d="
M139.738861,280.141602 
	C140.604202,282.331085 141.322586,284.164673 142.466827,287.085266 
	C152.616882,260.666321 162.366623,235.289337 172.116379,209.912338 
	C172.696854,210.068024 173.277328,210.223709 173.857819,210.379379 
	C173.676086,211.471313 173.673096,212.631424 173.286453,213.645203 
	C163.870270,238.334396 154.429092,263.014130 144.916824,287.666382 
	C144.438065,288.907166 143.280869,289.886200 142.439575,290.987091 
	C141.602676,289.889679 140.450958,288.913330 139.975327,287.676941 
	C130.547806,263.170898 121.193039,238.636871 111.850945,214.098068 
	C111.416344,212.956497 111.237236,211.717651 111.829369,210.204025 
	C122.223969,232.962585 130.515549,256.533325 139.738861,280.141602 
z"/>
<path fill="#FFF5F4" opacity="1.000000" stroke="none" 
	d="
M203.009094,251.818024 
	C198.548737,251.817932 194.586777,251.817932 190.339371,251.817932 
	C190.339371,264.296356 190.339371,276.348694 190.339371,289.116272 
	C202.614243,289.116272 214.742676,289.116272 226.871094,289.116272 
	C226.867538,289.553833 226.863968,289.991394 226.860397,290.428955 
	C214.011414,290.428955 201.162415,290.428955 188.057465,290.428955 
	C188.057465,263.944427 188.057465,237.384613 188.057465,210.686462 
	C201.113770,210.686462 214.013657,210.686462 226.913544,210.686462 
	C226.924683,211.136002 226.935837,211.585526 226.946991,212.035065 
	C214.840302,212.035065 202.733627,212.035065 190.343323,212.035065 
	C190.343323,224.894958 190.343323,236.958099 190.343323,249.724701 
	C201.600922,249.724701 212.610138,249.724701 223.619354,249.724701 
	C223.637650,250.422501 223.655945,251.120300 223.674240,251.818100 
	C216.951996,251.818100 210.229736,251.818100 203.009094,251.818024 
z"/>
<path fill="#FF5942" opacity="1.000000" stroke="none" 
	d="
M98.199905,248.132980 
	C98.705948,263.523621 94.526428,276.430634 81.181335,284.592285 
	C59.214069,298.027130 31.224171,285.044495 27.222218,259.579865 
	C25.044308,245.721710 26.735905,232.419830 37.235374,221.990448 
	C48.150627,211.148087 61.580441,209.088669 75.570068,214.271698 
	C90.652702,219.859695 97.246811,232.051086 98.199905,248.132980 
z"/>
<path fill="#FF5C45" opacity="1.000000" stroke="none" 
	d="
M345.253510,251.312500 
	C349.651733,239.796936 353.915771,228.645752 358.523987,216.594482 
	C364.980316,233.564636 371.123901,249.712708 377.474945,266.406097 
	C364.599548,266.406097 352.459076,266.406097 339.647278,266.406097 
	C341.578217,261.208527 343.348755,256.442719 345.253510,251.312500 
z"/>
</svg>